<svg xmlns="http://www.w3.org/2000/svg" xmlns:xlink="http://www.w3.org/1999/xlink" width="375" viewBox="0 0 375 375" height="375" version="1.0"><defs><g id="a"><path d="M 9.453125 -46.375 C 11.921875 -43.320312 13.671875 -39.875 14.703125 -36.03125 C 15.742188 -32.195312 16.097656 -28.332031 15.765625 -24.4375 C 15.429688 -20.550781 14.394531 -16.828125 12.65625 -13.265625 C 10.914062 -9.710938 8.5 -6.6875 5.40625 -4.1875 L 5.3125 -4.109375 C 4.6875 -3.597656 3.9375 -3.46875 3.0625 -3.71875 C 2.195312 -3.96875 1.273438 -4.414062 0.296875 -5.0625 C -0.679688 -5.707031 -1.671875 -6.507812 -2.671875 -7.46875 C -3.679688 -8.4375 -4.632812 -9.40625 -5.53125 -10.375 C -6.4375 -11.351562 -7.21875 -12.25 -7.875 -13.0625 C -8.539062 -13.875 -9.039062 -14.488281 -9.375 -14.90625 C -10.332031 -16.09375 -11.257812 -17.28125 -12.15625 -18.46875 C -13.0625 -19.65625 -13.957031 -20.867188 -14.84375 -22.109375 C -15.15625 -22.484375 -15.582031 -23.0625 -16.125 -23.84375 C -16.675781 -24.632812 -17.296875 -25.53125 -17.984375 -26.53125 C -18.679688 -27.53125 -19.390625 -28.582031 -20.109375 -29.6875 C -20.835938 -30.800781 -21.492188 -31.847656 -22.078125 -32.828125 C -22.671875 -33.804688 -23.179688 -34.679688 -23.609375 -35.453125 C -24.035156 -36.234375 -24.265625 -36.816406 -24.296875 -37.203125 C -24.460938 -38.335938 -24.316406 -39.578125 -23.859375 -40.921875 C -23.398438 -42.273438 -22.773438 -43.582031 -21.984375 -44.84375 C -21.191406 -46.113281 -20.304688 -47.300781 -19.328125 -48.40625 C -18.359375 -49.507812 -17.457031 -50.394531 -16.625 -51.0625 C -14.332031 -52.914062 -12 -54.097656 -9.625 -54.609375 C -7.257812 -55.117188 -4.925781 -55.109375 -2.625 -54.578125 C -0.332031 -54.046875 1.835938 -53.054688 3.890625 -51.609375 C 5.941406 -50.171875 7.796875 -48.425781 9.453125 -46.375 Z M 1.921875 -37.8125 C 1.304688 -38.570312 0.539062 -39.238281 -0.375 -39.8125 C -1.300781 -40.382812 -2.285156 -40.796875 -3.328125 -41.046875 C -4.367188 -41.296875 -5.40625 -41.332031 -6.4375 -41.15625 C -7.46875 -40.988281 -8.421875 -40.550781 -9.296875 -39.84375 C -10.023438 -39.257812 -10.628906 -38.488281 -11.109375 -37.53125 C -11.203125 -37.289062 -11.097656 -36.84375 -10.796875 -36.1875 C -10.503906 -35.53125 -10.09375 -34.785156 -9.5625 -33.953125 C -9.03125 -33.117188 -8.429688 -32.222656 -7.765625 -31.265625 C -7.109375 -30.304688 -6.457031 -29.410156 -5.8125 -28.578125 C -5.175781 -27.742188 -4.613281 -27.007812 -4.125 -26.375 C -3.632812 -25.738281 -3.304688 -25.3125 -3.140625 -25.09375 C -2.859375 -24.75 -2.441406 -24.238281 -1.890625 -23.5625 C -1.347656 -22.882812 -0.78125 -22.234375 -0.1875 -21.609375 C 0.394531 -20.992188 0.914062 -20.472656 1.375 -20.046875 C 1.832031 -19.617188 2.148438 -19.476562 2.328125 -19.625 C 3.367188 -20.457031 4.066406 -21.695312 4.421875 -23.34375 C 4.785156 -24.988281 4.910156 -26.738281 4.796875 -28.59375 C 4.679688 -30.445312 4.351562 -32.21875 3.8125 -33.90625 C 3.28125 -35.601562 2.648438 -36.90625 1.921875 -37.8125 Z M 1.921875 -37.8125"/></g><g id="b"><path d="M 14.34375 -3.90625 C 12.25 -3.03125 10.1875 -2.816406 8.15625 -3.265625 C 6.125 -3.722656 4.207031 -4.59375 2.40625 -5.875 C 0.613281 -7.15625 -0.988281 -8.742188 -2.40625 -10.640625 C -3.832031 -12.546875 -4.976562 -14.523438 -5.84375 -16.578125 C -6.757812 -18.765625 -7.4375 -21.132812 -7.875 -23.6875 C -8.3125 -26.238281 -8.367188 -28.703125 -8.046875 -31.078125 C -7.734375 -33.460938 -6.96875 -35.625 -5.75 -37.5625 C -4.53125 -39.507812 -2.726562 -40.984375 -0.34375 -41.984375 C 1.96875 -42.941406 4.203125 -43.128906 6.359375 -42.546875 C 8.515625 -41.972656 10.476562 -40.953125 12.25 -39.484375 C 14.019531 -38.023438 15.570312 -36.269531 16.90625 -34.21875 C 18.25 -32.164062 19.269531 -30.125 19.96875 -28.09375 C 20.769531 -25.863281 21.351562 -23.519531 21.71875 -21.0625 C 22.09375 -18.601562 22.113281 -16.265625 21.78125 -14.046875 C 21.457031 -11.828125 20.703125 -9.816406 19.515625 -8.015625 C 18.335938 -6.222656 16.613281 -4.851562 14.34375 -3.90625 Z M 3.296875 -32.078125 C 2.679688 -31.816406 2.269531 -31.253906 2.0625 -30.390625 C 1.863281 -29.535156 1.804688 -28.570312 1.890625 -27.5 C 1.984375 -26.4375 2.164062 -25.34375 2.4375 -24.21875 C 2.71875 -23.101562 3.019531 -22.15625 3.34375 -21.375 C 3.757812 -20.382812 4.300781 -19.347656 4.96875 -18.265625 C 5.632812 -17.179688 6.335938 -16.222656 7.078125 -15.390625 C 7.816406 -14.566406 8.550781 -13.9375 9.28125 -13.5 C 10.007812 -13.0625 10.6875 -12.972656 11.3125 -13.234375 C 11.96875 -13.503906 12.40625 -14.046875 12.625 -14.859375 C 12.84375 -15.671875 12.898438 -16.609375 12.796875 -17.671875 C 12.691406 -18.742188 12.460938 -19.875 12.109375 -21.0625 C 11.753906 -22.25 11.367188 -23.335938 10.953125 -24.328125 C 10.578125 -25.234375 10.078125 -26.195312 9.453125 -27.21875 C 8.828125 -28.25 8.160156 -29.171875 7.453125 -29.984375 C 6.753906 -30.804688 6.039062 -31.425781 5.3125 -31.84375 C 4.582031 -32.257812 3.910156 -32.335938 3.296875 -32.078125 Z M 3.296875 -32.078125"/></g><g id="c"><path d="M 29.34375 -26.609375 C 29.625 -24.347656 29.867188 -22.082031 30.078125 -19.8125 C 30.285156 -17.539062 30.441406 -15.265625 30.546875 -12.984375 C 30.640625 -11.023438 30.710938 -8.921875 30.765625 -6.671875 C 30.816406 -4.421875 30.734375 -2.171875 30.515625 0.078125 C 30.296875 2.328125 29.910156 4.507812 29.359375 6.625 C 28.804688 8.75 27.96875 10.664062 26.84375 12.375 C 25.726562 14.082031 24.296875 15.515625 22.546875 16.671875 C 20.804688 17.828125 18.648438 18.566406 16.078125 18.890625 C 14.878906 19.035156 13.515625 19.007812 11.984375 18.8125 C 10.453125 18.625 8.988281 18.253906 7.59375 17.703125 C 6.207031 17.148438 4.992188 16.40625 3.953125 15.46875 C 2.921875 14.539062 2.320312 13.390625 2.15625 12.015625 C 2.03125 11.003906 2.28125 10.019531 2.90625 9.0625 C 3.53125 8.101562 4.421875 7.550781 5.578125 7.40625 C 6.273438 7.320312 6.957031 7.363281 7.625 7.53125 C 8.300781 7.707031 8.976562 7.90625 9.65625 8.125 C 10.34375 8.351562 11 8.550781 11.625 8.71875 C 12.257812 8.894531 12.882812 8.945312 13.5 8.875 C 15.132812 8.675781 16.457031 8.097656 17.46875 7.140625 C 18.476562 6.179688 19.234375 5.03125 19.734375 3.6875 C 20.242188 2.34375 20.578125 0.910156 20.734375 -0.609375 C 20.890625 -2.140625 20.957031 -3.578125 20.9375 -4.921875 C 20.164062 -3.796875 19.21875 -2.972656 18.09375 -2.453125 C 16.96875 -1.929688 15.757812 -1.59375 14.46875 -1.4375 C 12.125 -1.15625 10.078125 -1.320312 8.328125 -1.9375 C 6.585938 -2.550781 5.117188 -3.515625 3.921875 -4.828125 C 2.734375 -6.148438 1.773438 -7.734375 1.046875 -9.578125 C 0.328125 -11.421875 -0.171875 -13.453125 -0.453125 -15.671875 C -0.617188 -17.046875 -0.660156 -18.613281 -0.578125 -20.375 C -0.492188 -22.132812 -0.273438 -23.9375 0.078125 -25.78125 C 0.441406 -27.632812 0.953125 -29.453125 1.609375 -31.234375 C 2.265625 -33.023438 3.085938 -34.632812 4.078125 -36.0625 C 5.078125 -37.488281 6.242188 -38.6875 7.578125 -39.65625 C 8.921875 -40.632812 10.460938 -41.234375 12.203125 -41.453125 C 13.878906 -41.648438 15.429688 -41.34375 16.859375 -40.53125 C 18.285156 -39.71875 19.222656 -38.441406 19.671875 -36.703125 C 20.035156 -37.679688 20.5625 -38.675781 21.25 -39.6875 C 21.9375 -40.695312 22.859375 -41.273438 24.015625 -41.421875 C 24.640625 -41.492188 25.195312 -41.242188 25.6875 -40.671875 C 26.175781 -40.109375 26.601562 -39.34375 26.96875 -38.375 C 27.34375 -37.40625 27.671875 -36.335938 27.953125 -35.171875 C 28.234375 -34.015625 28.460938 -32.875 28.640625 -31.75 C 28.828125 -30.625 28.976562 -29.597656 29.09375 -28.671875 C 29.207031 -27.742188 29.289062 -27.054688 29.34375 -26.609375 Z M 19.75 -21.046875 C 19.664062 -21.722656 19.457031 -22.578125 19.125 -23.609375 C 18.800781 -24.640625 18.390625 -25.617188 17.890625 -26.546875 C 17.398438 -27.484375 16.820312 -28.269531 16.15625 -28.90625 C 15.5 -29.539062 14.773438 -29.8125 13.984375 -29.71875 C 12.953125 -29.59375 12.09375 -29.128906 11.40625 -28.328125 C 10.71875 -27.523438 10.164062 -26.585938 9.75 -25.515625 C 9.34375 -24.453125 9.066406 -23.335938 8.921875 -22.171875 C 8.773438 -21.015625 8.753906 -20.035156 8.859375 -19.234375 C 8.921875 -18.671875 9.054688 -17.90625 9.265625 -16.9375 C 9.472656 -15.96875 9.773438 -15.035156 10.171875 -14.140625 C 10.578125 -13.242188 11.0625 -12.492188 11.625 -11.890625 C 12.195312 -11.285156 12.882812 -11.03125 13.6875 -11.125 C 14.882812 -11.269531 15.890625 -11.6875 16.703125 -12.375 C 17.515625 -13.0625 18.164062 -13.878906 18.65625 -14.828125 C 19.15625 -15.785156 19.492188 -16.816406 19.671875 -17.921875 C 19.847656 -19.035156 19.875 -20.078125 19.75 -21.046875 Z M 19.75 -21.046875"/></g><g id="d"><path d="M 41.703125 -15.890625 C 41.359375 -14.085938 40.910156 -12.25 40.359375 -10.375 C 39.804688 -8.5 39.132812 -6.703125 38.34375 -4.984375 C 37.5625 -3.273438 36.628906 -1.695312 35.546875 -0.25 C 34.472656 1.195312 33.226562 2.410156 31.8125 3.390625 C 30.40625 4.367188 28.800781 5.046875 27 5.421875 C 25.195312 5.804688 23.175781 5.78125 20.9375 5.34375 C 17.65625 4.707031 14.941406 3.382812 12.796875 1.375 C 10.660156 -0.625 9.007812 -2.972656 7.84375 -5.671875 C 6.6875 -8.367188 6 -11.273438 5.78125 -14.390625 C 5.5625 -17.515625 5.734375 -20.523438 6.296875 -23.421875 C 6.359375 -23.722656 6.414062 -24.003906 6.46875 -24.265625 C 6.519531 -24.523438 6.59375 -24.765625 6.6875 -24.984375 C 6.90625 -25.890625 7.21875 -27.117188 7.625 -28.671875 C 8.03125 -30.234375 8.539062 -31.882812 9.15625 -33.625 C 9.769531 -35.375 10.46875 -37.148438 11.25 -38.953125 C 12.03125 -40.765625 12.90625 -42.347656 13.875 -43.703125 C 14.851562 -45.066406 15.914062 -46.140625 17.0625 -46.921875 C 18.21875 -47.703125 19.457031 -47.960938 20.78125 -47.703125 C 21.738281 -47.515625 22.488281 -47.070312 23.03125 -46.375 C 23.570312 -45.675781 23.96875 -44.859375 24.21875 -43.921875 C 24.476562 -42.984375 24.601562 -42.023438 24.59375 -41.046875 C 24.59375 -40.078125 24.515625 -39.195312 24.359375 -38.40625 C 24.128906 -37.226562 23.773438 -36.054688 23.296875 -34.890625 C 22.816406 -33.734375 22.359375 -32.582031 21.921875 -31.4375 C 21.191406 -29.625 20.535156 -27.796875 19.953125 -25.953125 C 19.367188 -24.109375 18.882812 -22.203125 18.5 -20.234375 C 18.3125 -19.234375 18.132812 -18 17.96875 -16.53125 C 17.800781 -15.0625 17.804688 -13.609375 17.984375 -12.171875 C 18.160156 -10.742188 18.5625 -9.484375 19.1875 -8.390625 C 19.8125 -7.296875 20.828125 -6.613281 22.234375 -6.34375 C 23.597656 -6.082031 24.773438 -6.332031 25.765625 -7.09375 C 26.753906 -7.863281 27.566406 -8.84375 28.203125 -10.03125 C 28.847656 -11.226562 29.363281 -12.515625 29.75 -13.890625 C 30.132812 -15.273438 30.421875 -16.46875 30.609375 -17.46875 C 31.171875 -20.363281 31.484375 -23.269531 31.546875 -26.1875 C 31.609375 -29.113281 31.515625 -32.0625 31.265625 -35.03125 C 31.191406 -35.820312 31.148438 -36.597656 31.140625 -37.359375 C 31.140625 -38.128906 31.210938 -38.890625 31.359375 -39.640625 C 31.597656 -40.859375 32.164062 -41.859375 33.0625 -42.640625 C 33.957031 -43.421875 35.066406 -43.6875 36.390625 -43.4375 C 37.484375 -43.226562 38.414062 -42.601562 39.1875 -41.5625 C 39.96875 -40.53125 40.597656 -39.25 41.078125 -37.71875 C 41.554688 -36.195312 41.898438 -34.53125 42.109375 -32.71875 C 42.328125 -30.90625 42.472656 -29.113281 42.546875 -27.34375 C 42.617188 -25.582031 42.601562 -23.914062 42.5 -22.34375 C 42.40625 -20.78125 42.28125 -19.503906 42.125 -18.515625 C 42.09375 -18.066406 42.035156 -17.632812 41.953125 -17.21875 C 41.878906 -16.8125 41.796875 -16.367188 41.703125 -15.890625 Z M 41.703125 -15.890625"/></g><g id="e"><path d="M 38.265625 -1.75 C 37.316406 -0.0195312 36.09375 1.765625 34.59375 3.609375 C 33.09375 5.460938 31.414062 7.023438 29.5625 8.296875 C 27.71875 9.578125 25.757812 10.410156 23.6875 10.796875 C 21.613281 11.191406 19.5 10.800781 17.34375 9.625 C 16.789062 9.320312 16.238281 8.96875 15.6875 8.5625 C 15.144531 8.164062 14.664062 7.722656 14.25 7.234375 C 13.832031 6.742188 13.5 6.210938 13.25 5.640625 C 13 5.066406 12.910156 4.441406 12.984375 3.765625 L 7.796875 11.953125 C 7.273438 12.828125 6.65625 13.882812 5.9375 15.125 C 5.21875 16.363281 4.398438 17.46875 3.484375 18.4375 C 2.578125 19.40625 1.5625 20.101562 0.4375 20.53125 C -0.6875 20.957031 -1.894531 20.816406 -3.1875 20.109375 C -3.9375 19.703125 -4.351562 18.976562 -4.4375 17.9375 C -4.519531 16.894531 -4.390625 15.707031 -4.046875 14.375 C -3.703125 13.039062 -3.207031 11.601562 -2.5625 10.0625 C -1.914062 8.519531 -1.242188 7.070312 -0.546875 5.71875 C 0.140625 4.375 0.785156 3.15625 1.390625 2.0625 C 1.992188 0.96875 2.4375 0.164062 2.71875 -0.34375 C 4.15625 -2.96875 5.570312 -5.585938 6.96875 -8.203125 C 8.363281 -10.828125 9.785156 -13.453125 11.234375 -16.078125 C 11.484375 -16.546875 11.882812 -17.28125 12.4375 -18.28125 C 12.988281 -19.28125 13.625 -20.34375 14.34375 -21.46875 C 15.0625 -22.601562 15.851562 -23.742188 16.71875 -24.890625 C 17.59375 -26.046875 18.488281 -27.046875 19.40625 -27.890625 C 20.320312 -28.734375 21.234375 -29.328125 22.140625 -29.671875 C 23.046875 -30.023438 23.894531 -29.984375 24.6875 -29.546875 C 25.1875 -29.273438 25.5625 -28.878906 25.8125 -28.359375 C 26.0625 -27.835938 26.207031 -27.269531 26.25 -26.65625 C 26.300781 -26.039062 26.28125 -25.425781 26.1875 -24.8125 C 26.101562 -24.195312 26 -23.640625 25.875 -23.140625 C 27.84375 -23.847656 29.8125 -24.117188 31.78125 -23.953125 C 33.757812 -23.785156 35.648438 -23.207031 37.453125 -22.21875 C 39.328125 -21.1875 40.570312 -19.8125 41.1875 -18.09375 C 41.800781 -16.375 42.015625 -14.539062 41.828125 -12.59375 C 41.648438 -10.65625 41.207031 -8.722656 40.5 -6.796875 C 39.800781 -4.867188 39.054688 -3.1875 38.265625 -1.75 Z M 30.125 -6.828125 C 30.445312 -7.410156 30.722656 -8.03125 30.953125 -8.6875 C 31.191406 -9.34375 31.328125 -10.003906 31.359375 -10.671875 C 31.398438 -11.347656 31.28125 -11.984375 31 -12.578125 C 30.71875 -13.171875 30.226562 -13.660156 29.53125 -14.046875 C 28.582031 -14.566406 27.421875 -14.804688 26.046875 -14.765625 C 24.679688 -14.722656 23.523438 -14.453125 22.578125 -13.953125 C 22.222656 -13.742188 21.828125 -13.296875 21.390625 -12.609375 C 20.960938 -11.921875 20.65625 -11.40625 20.46875 -11.0625 C 20.3125 -10.789062 20.117188 -10.425781 19.890625 -9.96875 C 19.660156 -9.507812 19.4375 -9.03125 19.21875 -8.53125 C 19.007812 -8.039062 18.8125 -7.5625 18.625 -7.09375 C 18.445312 -6.632812 18.351562 -6.257812 18.34375 -5.96875 C 18.269531 -5.550781 18.34375 -5.082031 18.5625 -4.5625 C 18.789062 -4.050781 19.078125 -3.550781 19.421875 -3.0625 C 19.765625 -2.582031 20.144531 -2.144531 20.5625 -1.75 C 20.988281 -1.363281 21.378906 -1.070312 21.734375 -0.875 C 22.554688 -0.425781 23.390625 -0.375 24.234375 -0.71875 C 25.085938 -1.070312 25.898438 -1.59375 26.671875 -2.28125 C 27.441406 -2.976562 28.128906 -3.757812 28.734375 -4.625 C 29.347656 -5.5 29.8125 -6.234375 30.125 -6.828125 Z M 30.125 -6.828125"/></g><g id="f"><path d="M 40.828125 -12.5625 C 39.960938 -11.613281 39 -11.195312 37.9375 -11.3125 C 36.875 -11.4375 35.753906 -11.65625 34.578125 -11.96875 C 33.410156 -12.28125 32.25 -12.445312 31.09375 -12.46875 C 29.945312 -12.5 28.859375 -11.957031 27.828125 -10.84375 C 27.285156 -10.25 26.957031 -9.609375 26.84375 -8.921875 C 26.726562 -8.242188 26.71875 -7.539062 26.8125 -6.8125 C 26.914062 -6.09375 27.046875 -5.328125 27.203125 -4.515625 C 27.359375 -3.703125 27.429688 -2.875 27.421875 -2.03125 C 27.410156 -1.195312 27.242188 -0.320312 26.921875 0.59375 C 26.597656 1.507812 26 2.441406 25.125 3.390625 C 23.863281 4.773438 22.265625 5.8125 20.328125 6.5 C 18.398438 7.1875 16.410156 7.539062 14.359375 7.5625 C 12.316406 7.59375 10.316406 7.285156 8.359375 6.640625 C 6.398438 6.003906 4.742188 5.066406 3.390625 3.828125 C 2.835938 3.316406 2.316406 2.765625 1.828125 2.171875 C 1.335938 1.578125 0.972656 0.957031 0.734375 0.3125 C 0.503906 -0.320312 0.429688 -0.976562 0.515625 -1.65625 C 0.597656 -2.34375 0.941406 -3.015625 1.546875 -3.671875 C 2.390625 -4.585938 3.226562 -5.132812 4.0625 -5.3125 C 4.894531 -5.5 5.722656 -5.484375 6.546875 -5.265625 C 7.378906 -5.046875 8.191406 -4.722656 8.984375 -4.296875 C 9.773438 -3.878906 10.5625 -3.535156 11.34375 -3.265625 C 12.125 -3.003906 12.878906 -2.898438 13.609375 -2.953125 C 14.335938 -3.015625 15.035156 -3.410156 15.703125 -4.140625 C 16.335938 -4.835938 16.722656 -5.804688 16.859375 -7.046875 C 16.992188 -8.285156 17.113281 -9.625 17.21875 -11.0625 C 17.332031 -12.507812 17.550781 -13.957031 17.875 -15.40625 C 18.207031 -16.863281 18.90625 -18.171875 19.96875 -19.328125 C 21.257812 -20.742188 22.742188 -21.785156 24.421875 -22.453125 C 26.097656 -23.128906 27.828125 -23.46875 29.609375 -23.46875 C 31.398438 -23.476562 33.15625 -23.160156 34.875 -22.515625 C 36.601562 -21.878906 38.15625 -20.929688 39.53125 -19.671875 C 40.0625 -19.179688 40.535156 -18.648438 40.953125 -18.078125 C 41.367188 -17.515625 41.660156 -16.929688 41.828125 -16.328125 C 41.992188 -15.722656 42.007812 -15.097656 41.875 -14.453125 C 41.75 -13.816406 41.398438 -13.1875 40.828125 -12.5625 Z M 40.828125 -12.5625"/></g></defs><g fill="#FFC107"><use x="110.297" y="228.662" xmlns:xlink="http://www.w3.org/1999/xlink" xlink:href="#a" xlink:type="simple" xlink:actuate="onLoad" xlink:show="embed"/></g><g fill="#FFC107"><use x="135.003" y="208.318" xmlns:xlink="http://www.w3.org/1999/xlink" xlink:href="#b" xlink:type="simple" xlink:actuate="onLoad" xlink:show="embed"/></g><g fill="#FFC107"><use x="158.114" y="197.552" xmlns:xlink="http://www.w3.org/1999/xlink" xlink:href="#c" xlink:type="simple" xlink:actuate="onLoad" xlink:show="embed"/></g><g fill="#FFC107"><use x="186.889" y="192.665" xmlns:xlink="http://www.w3.org/1999/xlink" xlink:href="#d" xlink:type="simple" xlink:actuate="onLoad" xlink:show="embed"/></g><g fill="#FFC107"><use x="220.637" y="198.673" xmlns:xlink="http://www.w3.org/1999/xlink" xlink:href="#e" xlink:type="simple" xlink:actuate="onLoad" xlink:show="embed"/></g><g fill="#FFC107"><use x="246.958" y="213.374" xmlns:xlink="http://www.w3.org/1999/xlink" xlink:href="#f" xlink:type="simple" xlink:actuate="onLoad" xlink:show="embed"/></g></svg>